<svg width="741" height="735" xmlns="http://www.w3.org/2000/svg" xmlns:xlink="http://www.w3.org/1999/xlink" xml:space="preserve" overflow="hidden"><defs><clipPath id="clip0"><rect x="1830" y="695" width="741" height="735"/></clipPath></defs><g clip-path="url(#clip0)" transform="translate(-1830 -695)"><path d="M1830.15 1062.04C1830.15 859.355 1994.39 695.04 2196.99 695.04 2282.44 695.04 2361.05 724.263 2423.41 773.265 2375.92 746.809 2321.23 731.744 2263.02 731.744 2080.68 731.744 1932.86 879.623 1932.86 1062.04 1932.86 1244.46 2080.68 1392.34 2263.02 1392.34 2321.23 1392.34 2375.92 1377.27 2423.41 1350.82 2361.05 1399.82 2282.44 1429.04 2196.99 1429.04 1994.39 1429.04 1830.15 1264.73 1830.15 1062.04L1830.15 1062.04M2570.15 1062.04C2570.15 1224.19 2438.76 1355.64 2276.67 1355.64 2208.32 1355.64 2145.42 1332.26 2095.54 1293.06 2133.53 1314.23 2177.28 1326.28 2223.85 1326.28 2369.72 1326.28 2487.98 1207.98 2487.98 1062.04 2487.98 916.104 2369.72 797.803 2223.85 797.803 2177.28 797.803 2133.53 809.855 2095.54 831.02 2145.42 791.821 2208.32 768.442 2276.67 768.442 2438.76 768.442 2570.15 899.89 2570.15 1062.04M2343.45 1122.08 2366.89 1122.08 2340.3 1012.33C2339.48 1009.18 2337.97 1006.49 2335.75 1004.28 2333.18 1001.82 2330.39 1000.6 2327.35 1000.6 2322.8 1000.6 2318.49 1004.51 2314.4 1012.33L2274.34 1090.57 2234.44 1012.33C2230.36 1004.51 2226.05 1000.6 2221.5 1000.6 2218.35 1000.6 2215.58 1001.77 2213.19 1004.1 2210.79 1006.44 2209.25 1009.18 2208.55 1012.33L2181.78 1122.08 2205.4 1122.08 2222.55 1038.41 2262.61 1115.43C2265.41 1120.8 2269.5 1123.48 2274.86 1123.48 2279.64 1123.48 2283.38 1120.86 2286.06 1115.6L2326.13 1038.41 2343.45 1122.08M2093.59 1121.91 2169.53 1121.91 2169.53 1055.92 2092.01 1055.92 2092.01 1074.99 2148.71 1074.99 2148.71 1101.08 2093.59 1101.08C2082.16 1101.08 2072.74 1097.52 2065.33 1090.4 2057.92 1083.28 2054.22 1074 2054.22 1062.56 2054.22 1051.01 2057.92 1041.56 2065.33 1034.21 2072.74 1026.86 2082.16 1023.18 2093.59 1023.18L2161.13 1023.18 2161.13 1002.35 2093.59 1002.35C2075.97 1002.35 2061.54 1007.72 2050.28 1018.45 2039.02 1029.19 2033.4 1043.31 2033.4 1060.81 2033.4 1078.44 2039.08 1093.02 2050.46 1104.58 2061.83 1116.13 2076.21 1121.91 2093.59 1121.91L2093.59 1121.91" fill="#43B02A" fill-rule="evenodd"/></g></svg>