<svg width="2073" height="256" xmlns="http://www.w3.org/2000/svg" xmlns:xlink="http://www.w3.org/1999/xlink" xml:space="preserve" overflow="hidden"><defs><clipPath id="clip0"><rect x="1164" y="1577" width="2073" height="256"/></clipPath></defs><g clip-path="url(#clip0)" transform="translate(-1164 -1577)"><path d="M1446.11 1829.07 1288.8 1829.07C1252.8 1829.07 1223.01 1817.08 1199.45 1793.12 1175.89 1769.15 1164.11 1738.9 1164.11 1702.34 1164.11 1666.03 1175.77 1636.74 1199.09 1614.47 1222.41 1592.2 1252.31 1581.07 1288.8 1581.07L1428.71 1581.07 1428.71 1624.27 1288.8 1624.27C1265.12 1624.27 1245.61 1631.9 1230.26 1647.15 1214.92 1662.4 1207.25 1682.01 1207.25 1705.97 1207.25 1729.69 1214.92 1748.94 1230.26 1763.71 1245.61 1778.47 1265.12 1785.85 1288.8 1785.85L1402.98 1785.85 1402.98 1731.75 1285.54 1731.75 1285.54 1692.17 1446.11 1692.17 1446.11 1829.07" fill="#43B02A" fill-rule="evenodd"/><path d="M1687.88 1724.85 1546.42 1724.85 1546.42 1681.65 1687.88 1681.65 1687.88 1724.85M1699.12 1829.07 1485.12 1829.07 1485.12 1581.07 1699.12 1581.07 1699.12 1624.28 1528.29 1624.28 1528.29 1785.86 1699.12 1785.86 1699.12 1829.07" fill="#43B02A" fill-rule="evenodd"/><path d="M2059.14 1702.34C2059.14 1738.9 2047.44 1769.15 2024.05 1793.12 2000.65 1817.08 1970.86 1829.07 1934.68 1829.07L1865.59 1829.07C1829.65 1829.07 1799.92 1817.08 1776.41 1793.12 1752.89 1769.15 1741.14 1738.9 1741.14 1702.34 1741.14 1666.03 1752.77 1636.74 1776.05 1614.47 1799.32 1592.2 1829.17 1581.07 1865.59 1581.07L1934.68 1581.07C1971.35 1581.07 2001.25 1592.2 2024.41 1614.47 2047.56 1636.74 2059.14 1666.03 2059.14 1702.34M2016.45 1705.97C2016.45 1682.01 2008.79 1662.4 1993.47 1647.15 1978.16 1631.9 1958.56 1624.27 1934.68 1624.27L1865.59 1624.27C1841.95 1624.27 1822.48 1631.9 1807.16 1647.15 1791.84 1662.4 1784.19 1682.01 1784.19 1705.97 1784.19 1729.69 1791.84 1748.94 1807.16 1763.71 1822.48 1778.47 1841.95 1785.85 1865.59 1785.85L1934.68 1785.85C1958.56 1785.85 1978.16 1778.47 1993.47 1763.71 2008.79 1748.94 2016.45 1729.69 2016.45 1705.97L2016.45 1705.97" fill="#43B02A" fill-rule="evenodd"/><path d="M2579.15 1829.16 2530.65 1829.16 2494.81 1655.53 2411.91 1815.72C2406.36 1826.61 2398.64 1832.07 2388.74 1832.07 2377.64 1832.07 2369.19 1826.49 2363.4 1815.35L2280.5 1655.53 2245.02 1829.16 2196.15 1829.16 2251.54 1601.4C2252.99 1594.87 2256.18 1589.18 2261.13 1584.33 2266.08 1579.49 2271.81 1577.07 2278.33 1577.07 2287.74 1577.07 2296.67 1585.18 2305.12 1601.4L2387.66 1763.78 2470.55 1601.4C2479 1585.18 2487.93 1577.07 2497.34 1577.07 2503.62 1577.07 2509.41 1579.61 2514.72 1584.69 2519.3 1589.29 2522.44 1594.87 2524.13 1601.4L2579.15 1829.16" fill="#101820" fill-rule="evenodd"/><path d="M2943.17 1829.07 2887.73 1828.7 2846.06 1759.27 2728.66 1759.27 2754.75 1716.38 2820.34 1716.38 2777.22 1644.77 2665.61 1828.7 2610.17 1828.7 2744.61 1604.42C2747.99 1598.6 2752.69 1593.27 2758.73 1588.42 2765.98 1582.85 2772.5 1580.07 2778.3 1580.07 2784.58 1580.07 2791.11 1582.73 2797.87 1588.06 2803.67 1592.66 2808.38 1598.12 2812 1604.42L2943.17 1829.07" fill="#101820" fill-rule="evenodd"/><path d="M3236.18 1670.39C3236.18 1697.5 3226.29 1719.41 3206.52 1736.11 3188.19 1751.6 3165.16 1759.35 3137.43 1759.35L3028.55 1759.35 3028.55 1716.5 3144.3 1716.5C3158.53 1716.5 3170.47 1712.27 3180.11 1703.79 3189.76 1695.32 3194.58 1684.06 3194.58 1670.02 3194.58 1655.98 3189.76 1644.85 3180.11 1636.62 3170.47 1628.39 3158.53 1624.27 3144.3 1624.27L3003.22 1624.27 3003.22 1829.07 2960.18 1829.07 2960.18 1581.07 3137.43 1581.07C3165.16 1581.07 3188.19 1588.93 3206.52 1604.66 3226.29 1621.13 3236.18 1643.03 3236.18 1670.39L3236.18 1670.39" fill="#101820" fill-rule="evenodd"/></g></svg>